<svg width="347" height="410" fill="none" xmlns="http://www.w3.org/2000/svg"><path fill-rule="evenodd" clip-rule="evenodd" d="M255.861 71.061l-22.439 86.551c.153.31.305.622.456.935 8.311 17.252 13.994 29.351 17.051 36.297 2.79 6.343 7.869 18.708 15.237 37.095 10.123 25.467 11.952 46.831 5.488 64.094-6.464 17.263-19.814 30.346-40.05 39.248-16.204 7.129-31.498 9.235-45.882 6.316l-16.274 62.774c25.823 2.625 54.248-2.887 85.276-16.537 41.075-18.071 68.506-42.575 82.291-73.513 14.088-31.071 12.701-67.41-4.162-109.017-7.102-17.783-12.448-30.752-16.035-38.906-3.721-8.457-9.736-21.311-18.047-38.563-11.588-24.329-25.891-43.253-42.91-56.774zM127.617 391.704c-24.383-13.219-44.464-36.421-60.243-69.605-4.155-8.626-9.953-21.395-17.394-38.309-7.574-17.215-13.136-30.268-16.688-39.16-16.464-40.701-17.633-76.955-3.51-108.763 14.125-31.807 41.271-56.547 81.44-74.22 38.084-16.754 73.03-20.45 104.84-11.09l-17.032 65.694a58.376 58.376 0 00-8.948-4.404c-17.529-7.068-36.109-6.284-55.74 2.353-19.934 8.77-33.217 22.003-39.85 39.701-6.766 17.396-5.004 38.61 5.288 63.641 3.551 8.892 8.782 21.19 15.691 36.896 6.776 15.403 12.309 27.568 16.597 36.496 4.59 9.78 9.637 18.182 15.14 25.205l-19.591 75.565z" fill="#DCF3F8"></path><path fill-rule="evenodd" clip-rule="evenodd" d="M250.955 13.834a.5.5 0 01.358.61L149.665 406.516a.499.499 0 01-.609.358l-41.306-10.708a.5.5 0 01-.358-.61L209.04 3.484a.5.5 0 01.609-.359l41.306 10.71z" fill="#DCF3F8"></path><path clip-rule="evenodd" d="M234.955 13.838a.5.5 0 01.358.61L133.665 406.52a.499.499 0 01-.609.358L91.75 396.17a.501.501 0 01-.358-.61L193.04 3.488a.5.5 0 01.609-.359l41.306 10.71z" stroke="#000" stroke-width="4"></path><mask id="prefix__a" maskUnits="userSpaceOnUse" x="-1" y="22.524" width="336" height="369" fill="#000"><path fill="#fff" d="M-1 22.524h336v369H-1z"></path><path fill-rule="evenodd" clip-rule="evenodd" d="M183.819 28.954c-27.358-4.153-56.89.745-88.597 14.694-40.169 17.672-67.315 42.412-81.44 74.219C-.34 149.675.83 185.929 17.293 226.63c3.552 8.892 9.114 21.945 16.688 39.16 7.44 16.914 13.239 29.683 17.394 38.309 12.488 26.263 27.67 46.273 45.548 60.031l22.095-85.224a164.515 164.515 0 01-2.949-5.972c-4.288-8.928-9.821-21.093-16.597-36.496-6.91-15.706-12.14-28.004-15.691-36.896-10.291-25.031-12.054-46.245-5.288-63.641 6.633-17.698 19.916-30.931 39.85-39.7 17.221-7.577 33.633-9.11 49.236-4.602l16.241-62.645zm33.603 110.658l22.439-86.55c17.019 13.52 31.322 32.444 42.91 56.773 8.311 17.252 14.327 30.106 18.047 38.563 3.588 8.154 8.933 21.123 16.035 38.906 16.863 41.607 18.25 77.946 4.162 109.017-13.785 30.938-41.216 55.442-82.291 73.513-31.027 13.65-59.453 19.162-85.276 16.537l16.274-62.774c14.384 2.919 29.678.813 45.882-6.316 20.236-8.902 33.586-21.985 40.05-39.248 6.464-17.263 4.635-38.627-5.488-64.094-7.368-18.387-12.447-30.752-15.237-37.095-3.056-6.946-8.74-19.045-17.051-36.297-.151-.313-.303-.625-.456-.935z"></path></mask><path d="M95.222 43.648l1.611 3.661-1.61-3.661zm88.597-14.694l3.872 1.003 1.113-4.293L184.42 25l-.601 3.955zM13.783 117.867l-3.656-1.623 3.656 1.623zm3.51 108.763l3.714-1.484-.003-.008-.003-.008-3.709 1.5zm16.687 39.16l3.661-1.61-3.661 1.61zm17.394 38.309l3.613-1.718-.005-.009-.004-.009-3.604 1.736zm45.548 60.031l-2.44 3.17 4.794 3.689 1.518-5.855-3.872-1.004zm22.095-85.224l3.872 1.004.385-1.486-.708-1.362-3.549 1.844zm-2.949-5.972l3.621-1.699-.008-.016-.007-.017-3.606 1.732zm-16.597-36.496l-3.661 1.61 3.661-1.61zM83.78 199.542l3.715-1.483-.008-.019-.007-.019-3.7 1.521zm-5.288-63.641l3.728 1.45.009-.023.008-.023-3.745-1.404zm39.85-39.7l1.611 3.66-1.611-3.66zm49.236-4.602l-1.111 3.843 3.951 1.141 1.032-3.98-3.872-1.004zm72.283-38.538l2.488-3.132-4.816-3.826-1.544 5.955 3.872 1.003zm-22.439 86.551l-3.872-1.004-.372 1.437.655 1.333 3.589-1.766zm65.349-29.777l-3.611 1.72.004.008.004.008 3.603-1.736zm18.047 38.563l3.661-1.611-3.661 1.611zm16.035 38.906l-3.714 1.484.003.01.004.009 3.707-1.503zm4.162 109.017l-3.643-1.652-.005.012-.005.012 3.653 1.628zm-82.291 73.513l1.611 3.661-1.611-3.661zm-85.276 16.537l-3.872-1.004-1.17 4.512 4.637.471.405-3.979zm16.274-62.774l.796-3.92-3.716-.754-.952 3.67 3.872 1.004zm45.882-6.316l-1.61-3.661 1.61 3.661zm40.05-39.248l3.746 1.403-3.746-1.403zm-5.488-64.094l3.718-1.477-.005-.011-3.713 1.488zm-15.237-37.095l3.661-1.61-3.661 1.61zm-17.051-36.297l3.604-1.736-.004-.007-3.6 1.743zM96.833 47.309c31.187-13.72 59.946-18.414 86.386-14.4l1.201-7.91c-28.277-4.292-58.582.81-90.809 14.988l3.222 7.322zm-79.395 72.182c13.623-30.678 39.89-54.802 79.395-72.182l-3.222-7.322c-40.833 17.964-68.859 43.32-83.484 76.257l7.311 3.247zm3.563 105.639c-16.17-39.974-17.138-75.067-3.563-105.639l-7.311-3.247c-14.673 33.043-13.3 70.459 3.457 111.886l7.417-3zm16.64 39.05c-7.569-17.205-13.109-30.208-16.634-39.034l-7.43 2.968c3.578 8.957 9.164 22.062 16.742 39.287l7.322-3.221zm17.337 38.183c-4.125-8.562-9.9-21.281-17.337-38.183l-7.322 3.221c7.445 16.925 13.266 29.745 17.452 38.434l7.207-3.472zM99.36 360.96c-17.253-13.278-32.081-32.726-44.374-58.579l-7.225 3.436c12.683 26.673 28.22 47.245 46.72 61.483l4.88-6.34zm1.433 4.174l22.095-85.224-7.744-2.007-22.095 85.223 7.744 2.008zm11.653-90.5a169.186 169.186 0 003.02 6.117l7.099-3.689a161.474 161.474 0 01-2.877-5.827l-7.242 3.399zM95.81 238.048c6.784 15.42 12.336 27.632 16.652 36.618l7.212-3.464c-4.261-8.869-9.773-20.989-16.542-36.375l-7.322 3.221zm-15.745-37.022c3.577 8.955 8.829 21.302 15.745 37.022l7.322-3.221c-6.903-15.691-12.111-27.94-15.637-36.768l-7.43 2.967zm-5.301-66.575c-7.277 18.71-5.19 41.056 5.317 66.612l7.398-3.042c-10.075-24.506-11.514-44.588-5.26-60.67l-7.455-2.9zm41.967-41.912c-20.757 9.131-34.915 23.095-41.985 41.958l7.491 2.808c6.197-16.533 18.605-29.036 37.716-37.444l-3.222-7.322zm51.957-4.783c-16.643-4.81-34.021-3.108-51.957 4.783l3.222 7.322c16.506-7.261 31.952-8.628 46.514-4.42l2.221-7.685zm2.762 4.847l16.241-62.645-7.744-2.008-16.241 62.645 7.744 2.008zm64.539-40.545l-22.439 86.55 7.744 2.008 22.439-86.55-7.744-2.008zm50.394 56.057c-11.789-24.75-26.438-44.206-44.034-58.185l-4.976 6.263c16.441 13.062 30.399 31.454 41.787 55.362l7.223-3.44zm18.096 38.672c-3.749-8.523-9.79-21.429-18.104-38.688l-7.207 3.472c8.307 17.245 14.297 30.047 17.989 38.438l7.322-3.222zm16.089 39.034c-7.105-17.789-12.472-30.812-16.089-39.034l-7.322 3.222c3.558 8.087 8.881 21.002 15.982 38.779l7.429-2.967zm4.09 112.152c14.671-32.357 13.04-69.884-4.098-112.171l-7.414 3.005c16.587 40.927 17.731 76.077 4.226 105.862l7.286 3.304zm-84.323 75.522c41.683-18.338 70.027-43.438 84.334-75.546l-7.307-3.256c-13.265 29.768-39.782 53.676-80.249 71.479l3.222 7.323zm-87.292 16.855c26.691 2.714 55.82-3.009 87.292-16.855l-3.222-7.323c-30.582 13.455-58.305 18.756-83.261 16.219l-.809 7.959zm12.807-67.757l-16.274 62.774 7.744 2.007 16.274-62.773-7.744-2.008zm48.144-8.973c-15.608 6.866-30.057 8.78-43.476 6.057l-1.591 7.84c15.348 3.114 31.487.817 48.288-6.574l-3.221-7.323zm37.914-36.989c-6.012 16.055-18.454 28.428-37.914 36.989l3.221 7.323c21.011-9.244 35.269-23.037 42.185-41.507l-7.492-2.805zm-5.459-61.215c9.93 24.983 11.438 45.246 5.459 61.215l7.492 2.805c6.949-18.557 4.798-41.024-5.516-66.974l-7.435 2.954zm-15.182-36.961c2.76 6.272 7.815 18.577 15.186 36.972l7.426-2.976c-7.365-18.379-12.468-30.804-15.289-37.217l-7.323 3.221zm-16.992-36.172c8.311 17.254 13.967 29.296 16.992 36.172l7.323-3.221c-3.087-7.017-8.798-19.173-17.108-36.423l-7.207 3.472zm-.442-.905c.149.303.297.607.445.913l7.2-3.487c-.155-.321-.31-.64-.467-.957l-7.178 3.531z" fill="#000" mask="url(#prefix__a)"></path></svg>